<?xml version="1.0" encoding="UTF-8"?>
<svg id="Layer_1" xmlns="http://www.w3.org/2000/svg" version="1.1" viewBox="0 0 301 301">
  <!-- Generator: Adobe Illustrator 29.8.1, SVG Export Plug-In . SVG Version: 2.1.1 Build 2)  -->
  <defs>
    <style>
      .st0 {
        fill: #050606;
      }

      .st1 {
        fill: #ed1e24;
      }

      .st2 {
        stroke: #000;
        stroke-linecap: square;
        stroke-width: 23px;
      }

      .st2, .st3 {
        fill: none;
        stroke-miterlimit: 10;
      }

      .st3 {
        stroke: #050606;
      }
    </style>
  </defs>
  <path class="st3" d="M150.5,292.5c-78.3,0-142-63.7-142-142S72.2,8.5,150.5,8.5s142,63.7,142,142-63.7,142-142,142Z"/>
  <path class="st0" d="M150.5,0c-40.2,0-78,15.7-106.4,44.1C15.7,72.5,0,110.3,0,150.5s15.7,78,44.1,106.4c28.4,28.4,66.2,44.1,106.4,44.1s78-15.7,106.4-44.1,44.1-66.2,44.1-106.4-15.7-78-44.1-106.4C228.5,15.7,190.7,0,150.5,0h0Z"/>
  <path class="st1" d="M150.5,17c73.7,0,133.5,59.8,133.5,133.5s-59.8,133.5-133.5,133.5S17,224.2,17,150.5,76.8,17,150.5,17"/>
  <g id="SF">
    <line class="st2" x1="150.1" y1="33.2" x2="150.1" y2="278.4"/>
    <line class="st2" x1="74.7" y1="98" x2="188.2" y2="213.8"/>
    <line class="st2" x1="74.7" y1="252.6" x2="150.1" y2="177.3"/>
    <line class="st2" x1="150.1" y1="22.6" x2="226.3" y2="98"/>
    <line class="st2" x1="74.7" y1="98" x2="150.1" y2="22.6"/>
  </g>
</svg>